<svg viewBox="0 0 200 200" xmlns="http://www.w3.org/2000/svg">
  <path fill="#24A148" d="M29.5,-52.4C41,-44.5,55,-42.2,65.6,-34.4C76.2,-26.6,83.4,-13.3,85.3,1.1C87.1,15.4,83.6,30.8,74.7,41.6C65.8,52.4,51.6,58.6,38.3,60.9C24.9,63.2,12.5,61.6,-1.5,64.1C-15.4,66.7,-30.8,73.4,-39.5,68.4C-48.1,63.4,-50.1,46.7,-55.1,33.3C-60.1,20,-68.2,10,-67.6,0.4C-67,-9.3,-57.6,-18.6,-49.2,-26C-40.7,-33.3,-33.1,-38.8,-25.1,-48.7C-17,-58.5,-8.5,-72.8,0.3,-73.3C9,-73.7,18,-60.3,29.5,-52.4Z" transform="translate(100 100)" />
</svg>