<svg viewBox="0 0 200 200" xmlns="http://www.w3.org/2000/svg">
  <path fill="#8A3FFC" d="M18.6,-21.6C29.6,-25.9,47.9,-32,50.8,-28.8C53.7,-25.5,41.2,-12.7,43.6,1.3C45.9,15.4,63,30.8,66.2,44.7C69.4,58.5,58.7,70.8,45.3,72.5C32,74.2,16,65.4,-0.2,65.7C-16.3,65.9,-32.6,75.3,-35.3,67.4C-37.9,59.5,-27,34.4,-30.6,20.3C-34.2,6.2,-52.4,3.1,-56.7,-2.5C-61,-8,-51.3,-16,-41.1,-18.8C-30.9,-21.5,-20.2,-18.9,-13.2,-17C-6.3,-15.2,-3.1,-14.1,0.3,-14.6C3.8,-15.2,7.6,-17.4,18.6,-21.6Z" transform="translate(100 100)" />
</svg>